<?xml version="1.0" encoding="UTF-8"?>
<svg xmlns="http://www.w3.org/2000/svg" xmlns:xlink="http://www.w3.org/1999/xlink" fill="none" height="239" viewBox="0 0 304 239" width="304">
  <clipPath id="a">
    <path d="m0 0h304v239h-304z"></path>
  </clipPath>
  <g clip-path="url(#a)">
    <path d="m0 0h304v239h-304z" fill="#fff"></path>
    <g clip-rule="evenodd" fill-rule="evenodd">
      <path d="m82.0001 109.142h43.3499v-56.142h-43.3499z" fill="#fff"></path>
      <path d="m82.0001 109.142h43.3499v-56.142h-43.3499z" fill="#02193c" fill-opacity=".05"></path>
      <path d="m103.32 76.45v-12.7918c-7.0646 0-12.7918 5.7272-12.7918 12.7918 0 3.5973 1.4867 6.8458 3.8766 9.1696z" fill="#66d6c0"></path>
      <path d="m103.32 63.6582v12.7918h12.791c0-7.0646-5.727-12.7918-12.791-12.7918z" fill="#66d6c0"></path>
      <path d="m94.4047 85.6208c2.3039 2.2407 5.4479 3.6222 8.9153 3.6222 7.064 0 12.792-5.7272 12.792-12.7918h-12.792z" fill="#7d899a"></path>
      <path d="m96.3909 76.4523c0-3.8269 3.102-6.9289 6.9291-6.9289 3.827 0 6.929 3.102 6.929 6.9289s-3.102 6.9289-6.929 6.9289c-3.8271 0-6.9291-3.102-6.9291-6.9289z" fill="#f2f3f5"></path>
      <path d="m103.32 109.142h22.03v-56.142h-22.03z" fill="#02193c" fill-opacity=".03"></path>
      <path d="m85.5535 57.9743h11.3705v-.7106h-11.3705z" fill="#c7ccd3"></path>
      <path d="m85.5535 60.1071h36.2435v-.7106h-36.2435z" fill="#c7ccd3"></path>
      <path d="m85.5535 96.3493h36.2435v-.7106h-36.2435z" fill="#c7ccd3"></path>
      <path d="m85.5535 98.4821h36.2435v-.7106h-36.2435z" fill="#c7ccd3"></path>
      <path d="m85.5535 100.615h36.2435v-.7107h-36.2435z" fill="#c7ccd3"></path>
      <path d="m85.5535 102.746h36.2435v-.711h-36.2435z" fill="#c7ccd3"></path>
      <path d="m85.5535 104.879h36.2435v-.711h-36.2435z" fill="#c7ccd3"></path>
      <path d="m140.053 78.1463c-.833.8321-2.183.8328-3.016 0l-17.085-17.0847c-.832-.8329-.832-2.1832 0-3.0153.833-.8322 2.183-.8329 3.016 0l17.085 17.0847c.832.8329.832 2.1831 0 3.0153z" fill="#fff"></path>
      <path d="m122.997 58.0463c.832.8321.833 2.1824 0 3.0153l-17.085 17.0847c-.833.8328-2.183.8321-3.016 0-.831-.8322-.832-2.1824 0-3.0153l17.085-17.0847c.833-.8329 2.184-.8322 3.016 0z" fill="#fff"></path>
      <path d="m157.108 58.0463c.832.8321.833 2.1824 0 3.0153l-17.085 17.0847c-.833.8328-2.183.8321-3.016 0-.832-.8322-.832-2.1824 0-3.0153l17.085-17.0847c.833-.8329 2.183-.8322 3.016 0z" fill="#fff"></path>
      <path d="m140.053 78.1463c-.833.8321-2.183.8328-3.016 0l-17.085-17.0847c-.832-.8329-.832-2.1832 0-3.0153.833-.8322 2.183-.8329 3.016 0l17.085 17.0847c.832.8329.832 2.1831 0 3.0153z" fill="#0e1116" fill-opacity=".2"></path>
      <path d="m122.997 58.0463c.832.8321.833 2.1824 0 3.0153l-17.085 17.0847c-.833.8328-2.183.8321-3.016 0-.831-.8322-.832-2.1824 0-3.0153l17.085-17.0847c.833-.8329 2.184-.8322 3.016 0z" fill="#0e1116" fill-opacity=".2"></path>
      <path d="m157.108 58.0463c.832.8321.833 2.1824 0 3.0153l-17.085 17.0847c-.833.8328-2.183.8321-3.016 0-.832-.8322-.832-2.1824 0-3.0153l17.085-17.0847c.833-.8329 2.183-.8322 3.016 0z" fill="#0e1116" fill-opacity=".2"></path>
      <path d="m152.032 58.1464c0-2.7474 2.228-4.9745 4.975-4.9745 2.746 0 4.974 2.2271 4.974 4.9745s-2.228 4.9746-4.974 4.9746c-2.747 0-4.975-2.2272-4.975-4.9746z" fill="#66d6c0"></path>
      <path d="m157.007 60.9899c-1.568 0-2.843-1.2749-2.843-2.8426s1.275-2.8426 2.843-2.8426 2.842 1.2749 2.842 2.8426-1.274 2.8426-2.842 2.8426z" fill="#173741"></path>
      <path d="m133.556 75.2011c0-2.7474 2.228-4.9745 4.974-4.9745 2.747 0 4.975 2.2271 4.975 4.9745s-2.228 4.9745-4.975 4.9745c-2.746 0-4.974-2.2271-4.974-4.9745z" fill="#66d6c0"></path>
      <path d="m138.53 78.0446c-1.568 0-2.843-1.2749-2.843-2.8426s1.275-2.8426 2.843-2.8426 2.842 1.2749 2.842 2.8426-1.274 2.8426-2.842 2.8426z" fill="#173741"></path>
      <path d="m116.5 60.9882c0-2.7474 2.228-4.9745 4.974-4.9745 2.747 0 4.975 2.2271 4.975 4.9745s-2.228 4.9746-4.975 4.9746c-2.746 0-4.974-2.2272-4.974-4.9746z" fill="#66d6c0"></path>
      <path d="m121.474 63.8317c-1.568 0-2.842-1.2749-2.842-2.8426s1.274-2.8426 2.842-2.8426 2.843 1.2749 2.843 2.8426-1.275 2.8426-2.843 2.8426z" fill="#173741"></path>
      <path d="m98.7336 76.623c0-2.7474 2.2284-4.9746 4.9744-4.9746 2.747 0 4.975 2.2272 4.975 4.9746 0 2.7473-2.228 4.9745-4.975 4.9745-2.746 0-4.9744-2.2272-4.9744-4.9745z" fill="#7d899a"></path>
      <path d="m103.708 79.4664c-1.567 0-2.842-1.2749-2.842-2.8426 0-1.5676 1.275-2.8426 2.842-2.8426 1.568 0 2.843 1.275 2.843 2.8426 0 1.5677-1.275 2.8426-2.843 2.8426z" fill="#173741"></path>
      <path d="m286.219 75.4115c0-1.5818-1.282-2.8646-2.865-2.8646h-126.043c-1.583 0-2.865 1.2828-2.865 2.8646v71.6155h131.773z" fill="#02193c"></path>
      <path d="m160.175 141.299h120.315v-63.0217h-120.315z" fill="#fffffe"></path>
      <path d="m154.446 147.027v14.323c0 1.583 1.282 2.865 2.864 2.865h126.044c1.583 0 2.865-1.282 2.865-2.865v-14.323z" fill="#fff"></path>
      <path d="m154.446 147.027v14.323c0 1.583 1.282 2.865 2.864 2.865h126.044c1.583 0 2.865-1.282 2.865-2.865v-14.323z" fill="#7d899a"></path>
      <path d="m213.458 177.967h13.75v-13.75h-13.75z" fill="#fff"></path>
      <path d="m213.458 177.967h13.75v-13.75h-13.75z" fill="#7d899a"></path>
      <path d="m227.208 167.654-13.75 2.865v-6.302h13.75z" fill="#40516c"></path>
      <path d="m200.853 181.404h40.105v-3.437h-40.105z" fill="#fff"></path>
      <path d="m200.853 181.404h40.105v-3.437h-40.105z" fill="#7d899a"></path>
      <path d="m169.915 138.435h5.729v-16.042h-5.729z" fill="#7d899a"></path>
      <path d="m178.509 138.433h5.729v-33.23h-5.729z" fill="#7d899a"></path>
      <path d="m187.103 138.435h5.729v-24.636h-5.729z" fill="#7d899a"></path>
      <path d="m195.697 138.434h5.729v-36.094h-5.729z" fill="#7d899a"></path>
      <path d="m212.885 138.433h5.729v-26.927h-5.729z" fill="#7d899a"></path>
      <path d="m178.509 105.778h5.729v-5.729h-5.729z" fill="#40516c"></path>
      <path d="m169.915 122.391h5.729v-5.729h-5.729z" fill="#40516c"></path>
      <path d="m212.885 111.507h5.729v-5.73h-5.729z" fill="#40516c"></path>
      <path d="m221.479 138.433h5.729v-30.365h-5.729z" fill="#7d899a"></path>
      <path d="m221.479 108.069h5.729v-5.729h-5.729z" fill="#40516c"></path>
      <path d="m187.103 113.798h5.729v-5.73h-5.729z" fill="#40516c"></path>
      <path d="m195.697 102.339h5.729v-5.7296h-5.729z" fill="#40516c"></path>
      <path d="m204.29 138.435h5.73v-33.802h-5.73z" fill="#7d899a"></path>
      <path d="m204.29 105.206h5.73v-5.7294h-5.73z" fill="#40516c"></path>
      <path d="m163.613 86.2962h12.031v-1.1458h-12.031z" fill="#ecedef"></path>
      <path d="m163.613 89.1634h49.845v-1.1458h-49.845z" fill="#ecedef"></path>
      <path d="m163.613 92.0287h49.845v-1.1459h-49.845z" fill="#ecedef"></path>
      <path d="m160.175 81.142h120.315v-2.8647h-120.315z" fill="#c7ccd3"></path>
      <path d="m250.355 111.287v-18.6444c-10.297 0-18.644 8.3474-18.644 18.6444s8.347 18.644 18.644 18.644c5.663 0 10.728-2.532 14.147-6.519z" fill="#7d899a"></path>
      <path d="m264.507 123.418c2.798-3.262 4.493-7.497 4.493-12.131 0-10.297-8.347-18.6444-18.645-18.6444v18.6444z" fill="#66d6c0"></path>
      <path d="m240.257 111.287c0-5.578 4.521-10.099 10.099-10.099 5.577 0 10.099 4.521 10.099 10.099 0 5.577-4.522 10.099-10.099 10.099-5.578 0-10.099-4.522-10.099-10.099z" fill="#fffffe"></path>
      <path d="m284.01 159.673-2.717.594-3.073-9.279 1.131-.057z" fill="#f3ba95"></path>
      <path d="m267.043 141.825 11.055 15.79c.6.855 1.778 1.063 2.633.464l1.238-.867c.855-.599 1.063-1.777.464-2.632l-11.056-15.79z" fill="#fff"></path>
      <path d="m278.098 157.615c.6.855 1.778 1.063 2.633.464l1.238-.867c.855-.599 1.063-1.777.464-2.632l-11.056-15.79-4.334 3.035z" fill="#ecedef"></path>
      <path d="m279.956 156.314-11.056-15.789-1.858 1.3 11.056 15.79c.599.855 1.777 1.063 2.632.464l1.239-.867c.106-.075.202-.158.287-.248-.807.351-1.776.099-2.3-.65z" fill="#fff"></path>
      <path d="m279.956 156.314-11.056-15.789-1.858 1.3 11.056 15.79c.599.855 1.777 1.063 2.632.464l1.239-.867c.106-.075.202-.158.287-.248-.807.351-1.776.099-2.3-.65z" fill="#c7ccd3"></path>
      <path d="m265.975 135.688c-4.999 3.5-11.887 2.285-15.386-2.713-3.5-4.998-2.286-11.887 2.712-15.387 4.999-3.499 11.887-2.285 15.386 2.713 3.501 4.999 2.286 11.887-2.712 15.387zm-14.575-20.815c-6.498 4.55-8.077 13.505-3.527 20.002 4.55 6.498 13.506 8.078 20.002 3.527 6.498-4.55 8.077-13.504 3.528-20.002-4.549-6.497-13.505-8.076-20.003-3.527z" fill="#fff"></path>
      <path d="m265.975 135.688c-4.999 3.5-11.887 2.285-15.386-2.713-3.5-4.998-2.286-11.887 2.712-15.387 4.999-3.499 11.887-2.285 15.386 2.713 3.501 4.999 2.286 11.887-2.712 15.387zm-14.575-20.815c-6.498 4.55-8.077 13.505-3.527 20.002 4.55 6.498 13.506 8.078 20.002 3.527 6.498-4.55 8.077-13.504 3.528-20.002-4.549-6.497-13.505-8.076-20.003-3.527z" fill="#40516c"></path>
      <path d="m251.741 134.366s-1.376-1.614-1.862-2.511c-.479-.886-1.032-2.838-1.032-2.838-.931-4.228.687-8.791 4.454-11.428 2.499-1.75 5.471-2.322 8.256-1.831 2.784.491 5.381 2.044 7.13 4.544 3.501 4.998 2.286 11.886-2.712 15.386-2.499 1.75-5.471 2.322-8.255 1.831-2.225-.393-4.33-1.463-5.979-3.153zm9.638-17.605c-.714-.126-1.477.021-2.118.469-1.282.898-1.593 2.666-.695 3.948.449.642 1.115 1.04 1.829 1.166.715.126 1.477-.02 2.119-.469 1.282-.898 1.593-2.666.695-3.948-.449-.642-1.115-1.04-1.83-1.166z" fill="#7d899a" opacity=".4"></path>
      <path d="m257.669 137.804c-2.858-.504-5.522-2.098-7.318-4.663-3.593-5.13-2.346-12.2 2.784-15.792 2.565-1.796 5.615-2.382 8.472-1.878 2.858.504 5.523 2.098 7.319 4.662 3.592 5.131 2.346 12.2-2.784 15.792-2.565 1.796-5.615 2.382-8.473 1.879zm-5.928-3.439c1.649 1.689 3.754 2.76 5.979 3.152 2.784.491 5.756-.081 8.255-1.831 4.998-3.499 6.213-10.388 2.712-15.386-1.749-2.5-4.346-4.053-7.13-4.543-2.785-.491-5.757.08-8.256 1.83-3.767 2.638-5.385 7.201-4.454 11.428.304 1.382.88 2.727 1.741 3.958.352.503.738.967 1.153 1.392z" fill="#fff"></path>
      <path d="m257.669 137.804c-2.858-.504-5.522-2.098-7.318-4.663-3.593-5.13-2.346-12.2 2.784-15.792 2.565-1.796 5.615-2.382 8.472-1.878 2.858.504 5.523 2.098 7.319 4.662 3.592 5.131 2.346 12.2-2.784 15.792-2.565 1.796-5.615 2.382-8.473 1.879zm-5.928-3.439c1.649 1.689 3.754 2.76 5.979 3.152 2.784.491 5.756-.081 8.255-1.831 4.998-3.499 6.213-10.388 2.712-15.386-1.749-2.5-4.346-4.053-7.13-4.543-2.785-.491-5.757.08-8.256 1.83-3.767 2.638-5.385 7.201-4.454 11.428.304 1.382.88 2.727 1.741 3.958.352.503.738.967 1.153 1.392z" fill="#0e1116" fill-opacity=".2"></path>
      <path d="m260.395 122.343c-.714-.126-1.381-.524-1.83-1.166-.898-1.282-.587-3.05.696-3.948.641-.449 1.404-.595 2.118-.469.715.126 1.381.524 1.83 1.166.898 1.282.586 3.05-.696 3.947-.641.449-1.403.596-2.118.47z" fill="#f5fafc"></path>
      <path d="m270.448 139.44-2.477 1.734-1.3-1.857 2.477-1.735z" fill="#7d899a"></path>
      <path d="m270.448 139.44-2.477 1.734-1.3-1.857 2.477-1.735z" fill="#c7ccd3"></path>
      <path d="m268.9 140.524-.929.65-1.3-1.857.928-.65z" fill="#7d899a"></path>
      <path d="m268.943 237.271c7.984 1.774 20.97 1.765 29.004-.02 8.035-1.786 8.076-4.671.091-6.446-7.985-1.774-20.97-1.765-29.004.021-8.035 1.785-8.075 4.67-.091 6.445z" fill="#fff"></path>
      <path d="m268.943 237.271c7.984 1.774 20.97 1.765 29.004-.02 8.035-1.786 8.076-4.671.091-6.446-7.985-1.774-20.97-1.765-29.004.021-8.035 1.785-8.075 4.67-.091 6.445z" fill="#ecedef"></path>
      <path d="m287.749 169.86c-3.802-5.102-6.393-9.994-6.393-9.994l2.872-3.268 3.521 4.104z" fill="#c7ccd3"></path>
      <path d="m296.021 229.836-1.686.292c-.349-2.091-5.593-12.006-6.02-17.156-.473-5.718-1.802-12.084-1.802-12.084l5.641-1.677s1.429 0-.14 11.653c3.527 4.629 4.472 15.134 4.007 18.972z" fill="#f3ba95"></path>
      <path d="m291.867 194.973s-1.325 7.971-3.167 16.496c1.924 5.149-1.009 19.513-1.063 19.462-.221-.207-1.235 1.041-1.235 1.041s-2.139-12.678-2.612-18.394c-.473-5.718-.591-12.689-.591-12.689z" fill="#f3ba95"></path>
      <path d="m287.876 230.127s.803.681.656 1.549c-.147.867-.356 2.9-.356 2.9h-.826l.027-1.896c-.003-.124-1.771 1.896-2.071 1.896h-4.368s-.29-1.278 2.276-1.689c2.564-.412 4.662-2.76 4.662-2.76z" fill="#0e1116"></path>
      <path d="m294.142 228.683.116 1.81c.024.381-.081.757-.298 1.07-.24.346-.644.821-1.313 1.364 1.267.408 2.418-1.012 3.022-1.955.294-.461.408-1.012.327-1.551l-.212-1.423z" fill="#f3ba95"></path>
      <path d="m296.021 229.678s1.114.099 1.299.946c.185.849.712 2.563.712 2.563l-.608.483-.857-1.699s-1.843 2.483-2.136 2.605h-4.768s0-1.577 2.984-1.65c2.75-.064 3.374-3.248 3.374-3.248z" fill="#0e1116"></path>
      <path d="m286.513 162.59h3.414l-1.363-4.012-2.669 1.64z" fill="#ec967c"></path>
      <path d="m281.98 166.902c.017-.101.04-.185.06-.278-3.379-4.358-6.248-7.428-6.248-7.428l2.872-3.268 6.529 6.199 1.916.008s2.588-1.707 4.847.622c.826.853 1.376 3.161.824 5.603-1.52 6.73-.331 10.289-.331 10.289l-8.805 3.282s-.199-5.851-.337-9.956v-.013c-.027-.801-.295-1.565-.716-2.247-.485-.785-.791-1.74-.611-2.813z" fill="#c7ccd3"></path>
      <path d="m270.497 145.359 5.295 13.837 3.338-2.483-7.458-12.574z" fill="#f3ba95"></path>
      <path d="m271.152 141.175c.335.411.505.933.48 1.462l.233 1.997-.273.309-.937.832c.033-.413.08 0 .08 0l-1.506-2.622s-1.822-1.168.475-2.892c.22-.165.527-.202.755-.049.573.384.693.963.693.963z" fill="#f3ba95"></path>
      <path d="m282.294 188.589c0 2.079.478 15.172.478 15.172s8.364.646 9.989.646c.404-10.731 2.698-11.06 2.698-16.064 0-2.176-1.047-4.634-1.849-6.2-.577-1.125-.938-1.91-1.161-3.479l-.054-.203-8.93-.016s-1.171 6.362-1.171 10.144z" fill="#c7ccd3"></path>
      <path d="m285.314 151.367 5.597 1.959-.552 4.179-.035.173c-.107.02-.215.039-.322.066l-.052.014-.05.011c-1.292.317-2.207 1.384-2.617 2.619-.795.134-1.618.135-2.422-.031-.548-.112-1.044-.286-1.272-.548-1.181-2.577 1.725-8.442 1.725-8.442z" fill="#f3ba95"></path>
      <path d="m285.443 154.926c1.506.736 1.152 8.501 1.412 13.789.14 2.845 2.274 5.171 5.088 5.62 1.995.318 4.184.377 5.505-.376-.874-.714-5.582-7.641-4.074-16.813.199-1.207.223-4.569-1.81-6.393-2.258-2.027-6.918.617-6.918.617s-1.273 2.544.797 3.556z" fill="#0e1116"></path>
      <path d="m3.22461 156.016v2.639c0 1.458 1.18199 2.64 2.63955 2.64h105.58184c1.458 0 2.64-1.182 2.64-2.64v-2.639z" fill="#fff"></path>
      <path d="m3.22461 156.016v2.639c0 1.458 1.18199 2.64 2.63955 2.64h105.58184c1.458 0 2.64-1.182 2.64-2.64v-2.639z" fill="#7d899a"></path>
      <path d="m106.167 156.017v-60.1821c0-1.4581-1.181-2.6396-2.639-2.6396h-89.7453c-1.4575 0-2.6395 1.1815-2.6395 2.6396v60.1821z" fill="#02193c"></path>
      <path d="m15.3663 151.793h86.5777v-54.375h-86.5777z" fill="#02193c"></path>
      <path d="m16.4224 150.738h84.4656v-52.2634h-84.4656z" fill="#fffffe"></path>
      <path d="m3.22461 158.127h110.86139v-2.111h-110.86139z" fill="#fff"></path>
      <path d="m3.22461 158.127h110.86139v-2.111h-110.86139z" fill="#40516c"></path>
      <path d="m19.5897 148.097h5.2791v-6.863h-5.2791z" fill="#7d899a"></path>
      <path d="m25.9248 148.097h5.2791v-22.701h-5.2791z" fill="#7d899a"></path>
      <path d="m32.2599 148.098h5.2791v-14.782h-5.2791z" fill="#7d899a"></path>
      <path d="m25.9248 125.926h5.2791v-5.28h-5.2791z" fill="#40516c"></path>
      <path d="m19.5897 141.236h5.2791v-5.279h-5.2791z" fill="#40516c"></path>
      <path d="m32.2599 133.318h5.2791v-5.279h-5.2791z" fill="#40516c"></path>
      <path d="m51.2643 148.098h5.2791v-14.782h-5.2791z" fill="#7d899a"></path>
      <path d="m51.2643 133.318h5.2791v-5.279h-5.2791z" fill="#40516c"></path>
      <path d="m38.5944 148.1h5.2791v-20.061h-5.2791z" fill="#7d899a"></path>
      <path d="m38.5944 128.037h5.2791v-5.279h-5.2791z" fill="#40516c"></path>
      <path d="m44.9294 148.097h5.2791v-23.228h-5.2791z" fill="#7d899a"></path>
      <path d="m44.9294 125.398h5.2791v-5.279h-5.2791z" fill="#40516c"></path>
      <path d="m16.4224 100.586h84.4656v-2.1114h-84.4656z" fill="#c7ccd3"></path>
      <path d="m18.5341 104.28h11.0861v-1.055h-11.0861z" fill="#ecedef"></path>
      <path d="m18.5341 106.921h45.9282v-1.056h-45.9282z" fill="#ecedef"></path>
      <path d="m18.5341 109.562h45.9282v-1.056h-45.9282z" fill="#ecedef"></path>
      <path d="m18.5341 112.2h30.0909v-1.055h-30.0909z" fill="#ecedef"></path>
      <path d="m63.4062 142.818h33.7863v-1.056h-33.7863z" fill="#ecedef"></path>
      <path d="m63.4062 140.181h33.7863v-1.056h-33.7863z" fill="#ecedef"></path>
      <path d="m63.4062 145.458h33.7863v-1.056h-33.7863z" fill="#ecedef"></path>
      <path d="m63.4062 148.099h22.1723v-1.056h-22.1723z" fill="#ecedef"></path>
      <path d="m81.3552 123.285v-12.67c-6.9975 0-12.6699 5.673-12.6699 12.67 0 6.998 5.6724 12.67 12.6699 12.67 3.8484 0 7.2899-1.721 9.6132-4.43z" fill="#7d899a"></path>
      <path d="m90.9724 131.528c1.901-2.216 3.0529-5.094 3.0529-8.243 0-6.997-5.6724-12.67-12.6698-12.67v12.67z" fill="#66d6c0"></path>
      <path d="m74.4928 123.287c0-3.791 3.0724-6.863 6.8628-6.863s6.8629 3.072 6.8629 6.863c0 3.79-3.0725 6.863-6.8629 6.863s-6.8628-3.073-6.8628-6.863z" fill="#fffffe"></path>
      <path d="m142.522 193.537c0 1.757-1.423 3.181-3.18 3.181h-52.1552c-1.7568 0-3.1802-1.424-3.1802-3.181v-71.236c0-1.756 1.4234-3.18 3.1802-3.18h52.1552c1.757 0 3.18 1.424 3.18 3.18z" fill="#02193c"></path>
      <path d="m89.0946 191.631h48.3384v-67.42h-48.3384z" fill="#fffffe"></path>
      <path d="m89.0946 126.755h48.3384v-2.544h-48.3384z" fill="#c7ccd3"></path>
      <path d="m92.9111 156.012h2.5442v-5.088h-2.5442z" fill="#7d899a"></path>
      <path d="m96.7272 156.011h2.5441v-9.54h-2.5441z" fill="#7d899a"></path>
      <path d="m100.543 156.012h2.545v-13.992h-2.545z" fill="#7d899a"></path>
      <path d="m104.359 156.012h2.545v-12.721h-2.545z" fill="#7d899a"></path>
      <path d="m108.176 156.011h2.544v-10.177h-2.544z" fill="#7d899a"></path>
      <path d="m111.992 156.013h2.544v-17.173h-2.544z" fill="#7d899a"></path>
      <path d="m115.809 156.013h2.544v-17.173h-2.544z" fill="#40516c"></path>
      <path d="m119.625 156.011h2.544v-20.353h-2.544z" fill="#40516c"></path>
      <path d="m123.441 156.011h2.544v-24.169h-2.544z" fill="#40516c"></path>
      <path d="m127.257 156.011h2.544v-24.169h-2.544z" fill="#40516c"></path>
      <path d="m131.073 156.013h2.544v-17.173h-2.544z" fill="#40516c"></path>
      <path d="m89.0946 191.628h48.3384v-29.894h-48.3384z" fill="#ecedef" opacity=".6"></path>
      <path d="m101.816 176.366v-10.177c-5.6212 0-10.1771 4.556-10.1771 10.177s4.5559 10.177 10.1771 10.177c5.62 0 10.176-4.556 10.176-10.177z" fill="#7d899a"></path>
      <path d="m103.087 164.916v10.177h10.177c0-5.621-4.556-10.177-10.177-10.177z" fill="#66d6c0"></path>
      <path d="m115.809 171.276h18.445v-1.272h-18.445z" fill="#7d899a"></path>
      <path d="m115.809 173.821h18.445v-1.272h-18.445z" fill="#c7ccd3"></path>
      <path d="m115.809 176.364h18.445v-1.272h-18.445z" fill="#c7ccd3"></path>
      <path d="m115.809 178.911h18.445v-1.272h-18.445z" fill="#c7ccd3"></path>
      <path d="m115.809 181.454h11.448v-1.272h-11.448z" fill="#c7ccd3"></path>
      <path d="m76 80.5h-38v-48.5h32l6 6z" fill="#fff"></path>
      <path d="m76 80.5h-38v-48.5h32l6 6z" fill="#02193c" fill-opacity=".05"></path>
      <path d="m75.9999 38h-6v-6z" fill="#02193c" fill-opacity=".1"></path>
      <path d="m43 39.5h12.5v-.5h-12.5z" fill="#c7ccd3"></path>
      <path d="m43 41h26.5v-.5h-26.5z" fill="#c7ccd3"></path>
      <path d="m43 42.5h26.5v-.5h-26.5z" fill="#c7ccd3"></path>
      <path d="m50.9998 70h10.5v-.5h-10.5z" fill="#c7ccd3"></path>
      <path d="m50.9998 71.502h19v-.5h-19z" fill="#c7ccd3"></path>
      <path d="m50.9998 73h19v-.5h-19z" fill="#c7ccd3"></path>
      <path d="m50.9998 74.5h19v-.5h-19z" fill="#c7ccd3"></path>
      <path d="m50.9998 60.5h10.5v-.5h-10.5z" fill="#c7ccd3"></path>
      <path d="m50.9998 62h19v-.5h-19z" fill="#c7ccd3"></path>
      <path d="m50.9998 63.5h19v-.5h-19z" fill="#c7ccd3"></path>
      <path d="m50.9998 65h19v-.5h-19z" fill="#c7ccd3"></path>
      <path d="m43 66h6v-6h-6z" fill="#7d899a"></path>
      <path d="m43 75h6v-6h-6z" fill="#66d6c0"></path>
      <path d="m47.587 55.5914-3.722-2.3805.27-.421 3.278 2.097 2.7315-4.7805 4.656 3.1955 3.663-5.279 5.7595 4.189 5.079-6.6025.396.3045-5.375 6.9885-5.7405-4.1745-3.6555 5.267-4.6175-3.169z" fill="#c7ccd3"></path>
      <path d="m67.9999 46.5c0-.552.448-1 1-1s1 .448 1 1-.448 1-1 1-1-.448-1-1z" fill="#7d899a"></path>
      <path d="m63.4999 52.5c0-.552.448-1 1-1s1 .448 1 1-.448 1-1 1-1-.448-1-1z" fill="#66d6c0"></path>
      <path d="m57.4998 48.5c0-.552.448-1 1-1s1 .448 1 1-.448 1-1 1-1-.448-1-1z" fill="#7d899a"></path>
      <path d="m53.9999 53.5c0-.552.448-1 1-1s1 .448 1 1-.448 1-1 1-1-.448-1-1z" fill="#66d6c0"></path>
      <path d="m48.9996 50.5c0-.552.448-1 1-1s1 .448 1 1-.448 1-1 1-1-.448-1-1z" fill="#7d899a"></path>
      <path d="m46.5 55c0-.552.448-1 1-1s1 .448 1 1-.448 1-1 1-1-.448-1-1z" fill="#66d6c0"></path>
      <path d="m43 53c0-.552.448-1 1-1s1 .448 1 1-.448 1-1 1-1-.448-1-1z" fill="#7d899a"></path>
      <path d="m56.4998 32v48.5h19.5v-42.5l-6-6z" fill="#02193c" fill-opacity=".03"></path>
      <path d="m39.0547 237.683c-8.8946 1.992-23.3616 1.981-32.31163-.023-8.95101-2.003-8.99631-5.242-.10168-7.234 8.89561-1.991 23.36161-1.981 32.31161.023 8.951 2.004 8.9963 5.242.1017 7.234z" fill="#fff"></path>
      <path d="m39.0547 237.683c-8.8946 1.992-23.3616 1.981-32.31163-.023-8.95101-2.003-8.99631-5.242-.10168-7.234 8.89561-1.991 23.36161-1.981 32.31161.023 8.951 2.004 8.9963 5.242.1017 7.234z" fill="#ecedef"></path>
      <path d="m21.8349 232.553 8.2628-.008c1.0972.097 2.3229.36 2.5284 1.163 0 0 .144.533.1199 1.064-.2926.29-11.2485-.039-11.2485-.039l-.0482-.034c-1.1608-1.179.3856-2.146.3856-2.146z" fill="#0e1116"></path>
      <path d="m25.0996 232.545.6102.004-.19.778h-.5921z" fill="#fffffe"></path>
      <path d="m26.664 232.545.6103.004-.1905.778h-.5916z" fill="#fffffe"></path>
      <path d="m21.7996 229.807.5366 2.968c.6278.361 1.4431.384 2.0963.056l.1185-.059.3769-2.965z" fill="#f3ba95"></path>
      <path d="m3.84708 232.553 8.26282-.008c1.0965.097 2.3229.36 2.5284 1.163 0 0 .144.533.1199 1.064-.2926.29-11.24918-.039-11.24918-.039l-.04753-.034c-1.1608-1.179.38559-2.146.38559-2.146z" fill="#0e1116"></path>
      <path d="m7.11173 232.545.61018.004-.19003.778h-.59206z" fill="#fffffe"></path>
      <path d="m8.67569 232.545.61018.004-.19003.778h-.59206z" fill="#fffffe"></path>
      <path d="m4.11745 229.807-.3058 2.968c.56588.361 1.3021.384 1.89084.056l.10746-.059 1.13005-2.965z" fill="#f3ba95"></path>
      <path d="m15.9807 143.385-6.69457 4.39 2.06667 5.322c.029.075.0685.145.1014.218.1469-.01.2944-.018.4426-.018.0244 0 .0481.002.0724.002.0237 0 .0461-.002.0699-.002 1.792 0 3.3318 1.109 4.267 2.601 1.084-.082 2.1608-.346 3.1606-.825.6809-.325 1.2737-.712 1.4884-1.134.7165-3.774-4.9744-10.554-4.9744-10.554z" fill="#f3ba95"></path>
      <path d="m24.1928 144.738s.8178 7.68-.829 12.571c.7645.658 3.573 3.638 4.4558-.225.8836-3.863-.9913-13.699-.9913-13.699z" fill="#f3ba95"></path>
      <path d="m20.7526 144.692-2.7323 1.205.9755 1.399 2.931-.887s-.1388-.582-.3824-1.082c-.2435-.499-.5268-.782-.5268-.782" fill="#1b2441"></path>
      <path d="m38.218 139.119c.0012-.015.0041-.03.0053-.044-.2649-.668-.7322-1.731-1.3615-2.707-1.0171-1.579-1.3073-2.368-1.3073-2.368l-14.5372 10.545.9412 1.968 16.2607-6.66c-.0147-.246-.0194-.492-.0012-.734z" fill="#ffcb50"></path>
      <path d="m13.1965 159.027h5.1068l-.0388-3.715-4.4902-.115z" fill="#de9c76"></path>
      <path d="m26.8087 163.718s5.8665-1.812 7.705-4.249c1.8386-2.437-1.2729-15.772-1.2729-15.772l.4026-2.4c.2257-1.351-.8425-2.58-2.2532-2.592l-1.5674-.014c-.6522-.005-1.0921.645-.8273 1.223l2.061 4.5s1.5472 10.1-.6194 10.866c-2.5843.894-5.5094 1.108-5.5094 1.108z" fill="#f3ba95"></path>
      <path d="m16.5834 155.9-1.4802-3.372.962-.621c.7097-.458 1.0203-1.358.75-2.174l-1.0537-3.178s2.9976-.377 2.9077-3.248c0-1.476-1.9792-1.485-1.9792-1.485s-.592 1.321-2.428 1.478c-.7878-.103-2.9524.196-4.41218 2.815-.98187 1.76-.55168 4.519.30378 6.588.7655 1.855 2.7211 2.891 4.6595 3.197z" fill="#0e1116"></path>
      <path d="m10.739 183.271s.3076 7.011 1.8314 14.61c.4486 2.238.2795 4.555-.4518 6.719-3.45867 10.224-8.30695 25.597-8.30695 25.597h4.31291s9.77204-18.169 12.28984-27.182c2.5183-9.014 2.9495-11.875 2.9495-11.875l-2.9963-7.869z" fill="#0e1116"></path>
      <path d="m14.0239 150.972c-.1779.547.1817 1.272.8045 1.619.6229.345 1.2726.183 1.4506-.365.1786-.548-.1824-1.272-.8046-1.618-.6228-.347-1.2725-.183-1.4505.364z" fill="#f0ab85"></path>
      <path d="m24.1579 183.273h-14.0897v-17.87c0-3.914 3.0139-7.185 6.9567-7.549l9.7974-1.172s1.1522 1.743 4.3624 5.794c-3.8579 2.357-8.3233 3.442-8.3233 3.442z" fill="#7d899a"></path>
      <path d="m10.0682 183.271s2.0166 7.154 9.4574 15.172c1.2423 1.21 3.0321 3.729 2.7774 7.29l-1.5351 24.464h4.4417s5.4135-20.315 4.2459-30.33c-1.1682-10.014-5.1088-16.596-5.1088-16.596z" fill="#0e1116"></path>
    </g>
  </g>
</svg>
